<?xml version="1.0" standalone="no"?>
<!DOCTYPE svg PUBLIC "-//W3C//DTD SVG 1.1//EN" "http://www.w3.org/Graphics/SVG/1.1/DTD/svg11.dtd" >
<svg xmlns="http://www.w3.org/2000/svg">
<metadata></metadata>
<defs>
<font id="russian_road_signmedium" horiz-adv-x="1204" >
<font-face units-per-em="2048" ascent="1638" descent="-410" />
<missing-glyph horiz-adv-x="1024" />
<glyph horiz-adv-x="2048" />
<glyph horiz-adv-x="2048" />
<glyph unicode="&#xd;" horiz-adv-x="2048" />
<glyph unicode=" "  horiz-adv-x="1024" />
<glyph unicode="&#x09;" horiz-adv-x="1024" />
<glyph unicode="&#xa0;" horiz-adv-x="1024" />
<glyph unicode="#" horiz-adv-x="1421" d="M115 287v172h186l29 229h-158v172h186l43 287h201l-43 -287h229l43 287h201l-43 -287h158v-172h-186l-29 -229h158v-172h-187l-43 -287h-201l43 287h-229l-43 -287h-201l43 287h-157zM502 459h229l29 229h-230z" />
<glyph unicode="-" horiz-adv-x="688" d="M143 301v186h402v-186h-402z" />
<glyph unicode="." horiz-adv-x="458" d="M104 115q0 52 36.5 88.5t88.5 36.5t88.5 -36.5t36.5 -88.5t-36.5 -88.5t-88.5 -36.5t-88.5 36.5t-36.5 88.5z" />
<glyph unicode="0" horiz-adv-x="1032" d="M129 573q0 259 108 423.5t279 164.5q112 0 201 -79t137.5 -213t48.5 -296q0 -259 -108 -423t-279 -164t-279 164t-108 423zM330 573q0 -208 49.5 -308.5t136.5 -100.5t136.5 100.5t49.5 308.5t-49.5 309t-136.5 101t-136.5 -101t-49.5 -309z" />
<glyph unicode="1" horiz-adv-x="659" d="M23 881l249 266h172v-1147h-200v889l-154 -96z" />
<glyph unicode="2" horiz-adv-x="1003" d="M115 0v172q221 200 417 434q35 42 49.5 60.5t35.5 52t28.5 66.5t7.5 75q0 57 -47 103.5t-119 46.5q-37 0 -78.5 -22.5t-66 -44.5t-69.5 -68l-5 -5l-5 -5l-5 -5l-115 129q151 172 373 172q124 0 227 -88.5t103 -212.5q0 -101 -20.5 -153t-80.5 -125q-40 -51 -96.5 -111.5 t-140.5 -145.5t-135 -139h473q0 -79 -43 -186h-688z" />
<glyph unicode="3" horiz-adv-x="999" d="M113 221q94 -63 288 -63q105 0 175 48t71 142q0 19 -3 37t-15 43t-32.5 43.5t-60 31.5t-92.5 13q-71 0 -100 -14v157q106 22 182 86t76 129q0 53 -44 91.5t-99 38.5q-83 0 -136 -22t-118 -77l-76 170q59 35 172.5 69t194.5 34q115 0 211 -74t96 -186q0 -114 -69.5 -195 t-160.5 -92q25 -5 57 -17t72 -36.5t72.5 -55.5t55 -78t22.5 -100q0 -66 -28.5 -131t-80 -119.5t-133.5 -88.5t-180 -34q-51 0 -124.5 12t-121.5 25l-47 12z" />
<glyph unicode="4" horiz-adv-x="1044" d="M86 229v172l559 746h172v-746h158l-66 -172h-78v-229h-200v229h-545zM301 401h330v445z" />
<glyph unicode="5" horiz-adv-x="1007" d="M129 229q85 -57 272 -57q61 0 118 23t98.5 73.5t41.5 118.5q0 82 -54.5 148.5t-145.5 66.5q-38 0 -73 -17.5t-63.5 -41.5t-35.5 -27l-129 72v559h659l-57 -186h-416v-273q54 72 186 72q60 0 120.5 -24.5t110.5 -68.5t81.5 -114t31.5 -152q0 -176 -122.5 -295.5 t-321.5 -119.5q-57 0 -125 14t-107 28l-40 15z" />
<glyph unicode="6" horiz-adv-x="1046" d="M143 545q0 122 25.5 230.5t76 197t135 140.5t193.5 52q51 0 112 -11.5t97 -23.5l35 -12l29 -174q-13 7 -35.5 17t-87 26.5t-121.5 16.5q-53 0 -96 -21.5t-70.5 -55.5t-48 -75.5t-30.5 -83t-16.5 -75.5t-7.5 -55l-1 -22q151 123 270 123q29 0 64.5 -8.5t78.5 -32.5t77 -60 t57.5 -98t23.5 -139q0 -169 -108.5 -292t-249.5 -123q-185 0 -293.5 147t-108.5 412zM336 430q2 -10 6.5 -27.5t20 -62t34.5 -78.5t51.5 -62t69.5 -28q89 0 144 73t55 156q0 79 -47 125.5t-97 46.5q-44 0 -103.5 -36t-96.5 -71z" />
<glyph unicode="7" horiz-adv-x="921" d="M100 961l43 186h688v-143q-57 -115 -87 -176.5t-79.5 -173t-80.5 -198t-65.5 -204.5t-59.5 -238h-215q72 432 387 947h-531z" />
<glyph unicode="8" horiz-adv-x="1032" d="M129 315q0 56 23.5 106.5t57.5 82t67.5 55t56.5 33.5l24 10q-8 2 -21.5 7t-48 26t-61 47.5t-48 74t-21.5 103.5q0 143 104.5 222t253.5 79t253.5 -79t104.5 -222q0 -56 -20.5 -103.5t-50 -74.5t-59 -46.5t-50.5 -26.5l-20 -7q9 -4 24.5 -10.5t55 -32.5t69.5 -56t55 -81 t25 -107q0 -45 -12.5 -89.5t-41.5 -88t-72.5 -77t-110.5 -54t-150 -20.5t-150 20.5t-110.5 54t-72.5 77t-41.5 88t-12.5 89.5zM330 301q0 -69 56.5 -106t129.5 -37t129.5 37t56.5 106q0 32 -19 66t-46.5 59.5t-55 46.5t-46.5 32l-19 11q-8 -5 -20.5 -13t-44.5 -33.5 t-56.5 -50t-44.5 -57.5t-20 -61zM358 860q0 -38 39.5 -81t78.5 -67l40 -24q6 4 17 10t38 25.5t48 39t38 46.5t17 51q0 71 -44 104t-114 33t-114 -33t-44 -104z" />
<glyph unicode="9" horiz-adv-x="1032" d="M129 745q0 172 102.5 300.5t241.5 128.5q189 0 302.5 -140.5t113.5 -402.5q0 -106 -16 -200t-51 -177.5t-87.5 -143.5t-130.5 -95t-174 -35q-51 0 -112 15.5t-96 31.5l-36 16l-22 176q14 -8 38 -19t90.5 -29.5t123.5 -18.5q72 0 126.5 39t81 94.5t42.5 111t19 94.5l3 39 q-144 -114 -272 -114q-30 0 -63.5 7.5t-74.5 30.5t-73 57.5t-54 95.5t-22 138zM315 760q0 -79 47 -125.5t97 -46.5q40 0 77.5 14.5t63 35t45 41.5t28.5 35l9 15q-3 25 -8.5 50.5t-19 66.5t-32 70.5t-50 51.5t-70.5 21q-60 -1 -104 -38t-63.5 -87.5t-19.5 -103.5z" />
<glyph unicode=":" horiz-adv-x="458" d="M104 115q0 52 36.5 88.5t88.5 36.5t88.5 -36.5t36.5 -88.5t-36.5 -88.5t-88.5 -36.5t-88.5 36.5t-36.5 88.5zM104 688q0 52 36.5 88.5t88.5 36.5t88.5 -36.5t36.5 -88.5t-36.5 -88.5t-88.5 -36.5t-88.5 36.5t-36.5 88.5z" />
<glyph unicode="A" horiz-adv-x="1261" d="M143 0l373 1147h229l373 -1147h-215l-72 229h-401l-72 -229h-215zM487 401h287l-143 488z" />
<glyph unicode="B" horiz-adv-x="1146" d="M186 0v1147h445q152 0 244 -96.5t92 -219.5q0 -66 -45.5 -132t-118.5 -97q91 -34 146 -100t55 -158q0 -142 -106.5 -243t-264.5 -101h-447zM387 172h244q81 0 126.5 52t45.5 120t-45.5 120t-126.5 52h-244v-344zM387 680h229q64 0 104 41t40 106q0 71 -42.5 109.5 t-101.5 38.5h-229v-295z" />
<glyph unicode="C" horiz-adv-x="1146" d="M135 573q0 127 29 235t85.5 191t147 130t205.5 47q294 0 416 -316l-193 -72q-32 105 -87 153t-136 48q-120 0 -196 -112.5t-76 -303.5t75.5 -303t196.5 -112q82 0 136.5 47.5t86.5 152.5l193 -71q-122 -316 -416 -316q-115 0 -205.5 47t-147 129.5t-85.5 190.5t-29 235z " />
<glyph unicode="D" d="M186 0v1147h387q231 0 363.5 -159.5t132.5 -414.5t-132.5 -414t-363.5 -159h-387zM387 172h172q127 0 214 103.5t87 297.5t-87 298t-214 104h-172v-803z" />
<glyph unicode="E" horiz-adv-x="1103" d="M186 0v1147h717v-186h-516v-273h416v-172h-416v-344h531v-172h-732z" />
<glyph unicode="F" horiz-adv-x="1046" d="M186 0v1147h732v-186h-531v-302h416v-172h-416v-487h-201z" />
<glyph unicode="G" d="M145 573q0 125 32 234t92 191.5t153.5 130t208.5 47.5q294 0 416 -316l-193 -72q-32 105 -87 153t-136 48q-121 0 -197 -113t-76 -303t76 -302.5t197 -112.5q55 0 90 12.5t67 44.5q44 44 58 78.5t14 107.5h-201v172h416v-573h-172l-43 100q-90 -129 -229 -129 q-92 0 -171 30.5t-136.5 85.5t-98 130.5t-60.5 165.5t-20 190z" />
<glyph unicode="H" d="M186 0v1147h201v-459h430v459h201v-1147h-201v516h-430v-516h-201z" />
<glyph unicode="I" horiz-adv-x="573" d="M186 0v1147h201v-1147h-201z" />
<glyph unicode="J" horiz-adv-x="802" d="M72 0l14 201q86 -29 186 -29q49 0 89 37t40 105v833h201v-889q0 -110 -86.5 -198.5t-228.5 -88.5q-32 0 -85.5 7.5t-91.5 14.5z" />
<glyph unicode="K" horiz-adv-x="1193" d="M195 0v1147h200v-1147h-200zM397 606l400 541h258l-412 -539l440 -608h-258z" />
<glyph unicode="L" horiz-adv-x="1032" d="M186 0v1147h201v-975h516v-172h-717z" />
<glyph unicode="M" horiz-adv-x="1433" d="M172 0v1147h229l316 -531l315 531h230v-1147h-187l-14 831l-344 -602l-344 602v-831h-201z" />
<glyph unicode="N" d="M172 0v1147h229l430 -817v817h201v-1147h-229l-430 831v-831h-201z" />
<glyph unicode="O" d="M135 573q0 101 18 190.5t56 165.5t92.5 130.5t131.5 85.5t169 31t169 -31t131.5 -85.5t92.5 -130.5t56 -165.5t18 -190.5q0 -126 -29 -234t-85.5 -191t-147 -130t-205.5 -47t-205.5 47t-147 130t-85.5 191t-29 234zM330 573q0 -191 75.5 -303t196.5 -112t196.5 112 t75.5 303t-76 303.5t-196 112.5t-196 -112.5t-76 -303.5z" />
<glyph unicode="P" horiz-adv-x="1146" d="M186 0v1147h387q82 0 150 -25t111 -64.5t72.5 -90.5t42 -99.5t12.5 -93.5q0 -55 -29 -119t-78.5 -121t-124 -95t-156.5 -38h-186v-401h-201zM387 573h129q96 0 162.5 50.5t66.5 150.5t-66.5 150.5t-162.5 50.5h-129v-402z" />
<glyph unicode="Q" d="M139 573q0 101 17.5 190.5t55 165.5t91.5 130.5t130.5 85.5t168.5 31t168.5 -31t130.5 -85.5t91.5 -130.5t55 -165.5t17.5 -190.5q0 -154 -42.5 -281.5t-125.5 -207.5l64 -113l-166 -92l-56 111q-65 -19 -137 -19q-92 0 -168.5 31t-130.5 85.5t-91.5 130.5t-55 165 t-17.5 190zM334 573q0 -191 74 -303t194 -112q25 0 49 6l-76 151l148 76l72 -123q75 115 75 305q0 191 -74 303.5t-194 112.5t-194 -112.5t-74 -303.5z" />
<glyph unicode="R" horiz-adv-x="1261" d="M201 0v1147h387q82 0 147 -22t103.5 -55.5t63.5 -77.5t34.5 -83.5t9.5 -77.5q0 -112 -60.5 -189t-154.5 -112q52 -12 97 -65.5t78 -124t63.5 -141t65 -127.5t69.5 -72h-244q-25 34 -70.5 140.5t-64.5 143.5q-44 86 -63 109q-52 66 -146 66h-115v-459h-200zM401 631h129 q94 0 154.5 42.5t60.5 129.5t-60.5 129.5t-154.5 42.5h-129v-344z" />
<glyph unicode="S" d="M180 172l142 117q4 -5 12.5 -14t38 -31.5t63 -40t86.5 -31.5t109 -14q65 0 113.5 18t71.5 45t33.5 51t10.5 43q0 2 0.5 15.5t0 20t-3 21t-10 23.5t-19 22.5t-31.5 24t-46 22t-64 21t-85 17.5q-94 16 -163.5 45.5t-105.5 60.5t-57.5 72t-26.5 71t-5 66q0 153 117 256 t298 103q56 0 117 -16.5t107 -39.5t84.5 -46t58.5 -40l21 -16l-129 -144q-4 5 -10.5 12.5t-31 27.5t-52 35t-72.5 27.5t-93 12.5q-61 0 -105.5 -18.5t-67 -47t-32.5 -55t-10 -51.5q0 -28 15 -49.5t40.5 -37t61.5 -27.5t76.5 -21t86.5 -19q14 -3 21 -4q154 -33 242 -118 t87 -211q0 -44 -17.5 -92.5t-55.5 -96t-89.5 -85.5t-124.5 -61.5t-156 -23.5q-72 0 -145 20.5t-126 50t-95 59.5t-63 51z" />
<glyph unicode="T" horiz-adv-x="1089" d="M129 975v172h832v-172h-316v-975h-201v975h-315z" />
<glyph unicode="U" d="M186 373v774h201v-789q0 -56 21 -99.5t54.5 -67.5t69 -36t70.5 -12t70.5 12t69 36t54.5 67.5t21 99.5v789h201v-774q0 -9 -1.5 -26.5t-11 -56t-25 -76t-47 -80t-73.5 -74.5t-109 -53t-149 -21t-149 21t-109 53t-73.5 74.5t-47 80t-25 76t-11 56t-1.5 26.5z" />
<glyph unicode="V" horiz-adv-x="1189" d="M143 1147h230l229 -860l229 860h216l-316 -1147h-258z" />
<glyph unicode="W" horiz-adv-x="1662" d="M172 1147h215l160 -801h12l172 801h201l186 -813l158 813h215l-244 -1147h-229l-187 756l-186 -756h-229z" />
<glyph unicode="X" horiz-adv-x="1114" d="M86 0l356 602l-327 545h256l186 -359l186 359h256l-327 -545l356 -602h-242l-229 416l-229 -416h-242z" />
<glyph unicode="Y" d="M143 1147h230l229 -473l229 473h230l-359 -688v-459h-200v459z" />
<glyph unicode="Z" horiz-adv-x="1146" d="M186 0h775v172h-531l516 789v186h-745v-172h501l-516 -789v-186z" />
<glyph unicode="a" horiz-adv-x="974" d="M143 229q0 76 50.5 133.5t122 85.5t143 45t121.5 20l51 3v57q0 35 -55.5 75t-116.5 40q-59 0 -117.5 -30.5t-97.5 -69.5l-86 143q57 34 82 48t89 33t130 19q73 0 152 -34t135.5 -95t56.5 -129v-387q0 -25 6 -41t19.5 -22t21.5 -7t24 -1l-71 -144q-84 0 -123 24.5 t-49 104.5q-25 -49 -88 -89t-142 -40q-44 0 -89 16.5t-83 47.5t-62 81.5t-24 112.5zM330 244q0 -65 40 -97t74 -32q39 0 85 30t74 60t28 39v143q-18 -7 -58.5 -13t-79.5 -13t-77.5 -19t-62 -37t-23.5 -61z" />
<glyph unicode="b" horiz-adv-x="1017" d="M172 0h143q8 45 29 86q2 -5 7 -12.5t22.5 -27.5t39 -35t57 -27.5t75.5 -12.5q47 0 92.5 11t95 41.5t86 77t60.5 124t24 176.5q0 101 -29.5 181.5t-71.5 125.5t-94.5 74.5t-92 39t-70.5 9.5q-52 0 -101.5 -22.5t-74.5 -45.5t-25 -32v416h-172v-1147zM344 272v301 q31 53 87.5 84t113.5 31q77 0 131.5 -80.5t54.5 -206.5q0 -125 -54 -198.5t-132 -73.5q-61 0 -114.5 39t-86.5 104z" />
<glyph unicode="c" horiz-adv-x="974" d="M129 401q0 190 111.5 310t275.5 120q121 0 212 -64t132 -179l-162 -62q-23 78 -70.5 120t-111.5 42q-87 0 -144 -79.5t-57 -207.5t57 -207t144 -79q65 0 112 41.5t70 119.5l162 -61q-41 -115 -132.5 -179.5t-211.5 -64.5q-164 0 -275.5 120t-111.5 310z" />
<glyph unicode="d" horiz-adv-x="1017" d="M172 401q0 101 29.5 181.5t71.5 125.5t94.5 74.5t92 39t70.5 9.5q52 0 101.5 -22.5t74.5 -45.5t25 -32v416h172v-1147h-143q-8 45 -29 86q-2 -5 -7 -12.5t-22.5 -27.5t-39 -35t-57 -27.5t-75.5 -12.5q-47 0 -92.5 11t-95 41.5t-86 77t-60.5 124t-24 176.5zM344 401 q0 -125 54 -198.5t132 -73.5q61 0 114.5 39t86.5 104v301q-31 53 -87.5 84t-113.5 31q-77 0 -131.5 -80.5t-54.5 -206.5z" />
<glyph unicode="e" horiz-adv-x="1032" d="M139 401q3 191 82 287q53 65 133.5 104t161.5 39q151 0 262 -120t111 -281q0 -33 -12.5 -59.5t-30.5 -26.5h-516q0 -61 23 -105.5t58.5 -67t69 -32.5t64.5 -10q51 0 88.5 25.5t83.5 83.5l139 -80q-145 -187 -311 -187q-80 0 -154.5 31.5t-130.5 86.5t-89 137 q-32 79 -32 169v6zM330 487h358q14 0 14 29q0 63 -62 119q-58 53 -118 53h-6q-78 -3 -132 -52.5t-54 -148.5z" />
<glyph unicode="f" horiz-adv-x="745" d="M129 645v158h129v158q0 78 62.5 132t166.5 54q44 0 91 -7.5t72 -14.5l24 -7l-43 -143q-29 14 -101 14q-50 0 -75 -25t-25 -61v-100h201v-158h-201v-645h-172v645h-129z" />
<glyph unicode="i" horiz-adv-x="516" d="M133 1067q0 52 36.5 88.5t88.5 36.5t88.5 -36.5t36.5 -88.5t-36.5 -88.5t-88.5 -36.5t-88.5 36.5t-36.5 88.5zM172 0v803h172v-803h-172z" />
<glyph unicode="k" horiz-adv-x="970" d="M201 0v1147h172v-709l266 365h211l-277 -379l283 -424h-215l-268 428v-428h-172z" />
<glyph unicode="o" horiz-adv-x="1032" d="M143 401q0 192 105 311t268 119t268 -119t105 -311t-105 -311t-268 -119t-268 119t-105 311zM315 401q0 -128 57 -207t144 -79t144 79t57 207t-57 207.5t-144 79.5t-144 -79.5t-57 -207.5z" />
<glyph unicode="p" horiz-adv-x="1017" d="M172 -344v1147h143q8 -45 29 -86q2 5 7 12.5t22.5 27t39 34.5t57 27.5t75.5 12.5q47 0 92.5 -11t95 -41.5t86 -77t60.5 -124t24 -176.5q0 -101 -29.5 -181.5t-71.5 -125.5t-94.5 -74.5t-92 -39t-70.5 -9.5q-52 0 -101.5 23t-74.5 46t-25 32v-416h-172zM344 229 q31 -53 87.5 -83.5t113.5 -30.5q77 0 131.5 80t54.5 206q0 125 -54 199t-132 74q-61 0 -114.5 -39t-86.5 -105v-301z" />
<glyph unicode="q" horiz-adv-x="1017" d="M172 401q0 -101 29.5 -181.5t71.5 -125.5t94.5 -74.5t92 -39t70.5 -9.5q52 0 101.5 23t74.5 46t25 32v-416h172v1147h-143q-8 -45 -29 -86q-2 5 -7 12.5t-22.5 27t-39 34.5t-57 27.5t-75.5 12.5q-47 0 -92.5 -11t-95 -41.5t-86 -77t-60.5 -124t-24 -176.5zM344 401 q0 125 54 199t132 74q61 0 114.5 -39t86.5 -105v-301q-31 -53 -87.5 -83.5t-113.5 -30.5q-77 0 -131.5 80t-54.5 206z" />
<glyph unicode="v" horiz-adv-x="917" d="M100 803h193l166 -559l166 559h192l-258 -803h-201z" />
<glyph unicode="w" horiz-adv-x="1390" d="M129 803h193l145 -545l135 545h186l136 -545l145 545h193l-244 -803h-201l-129 516l-129 -516h-201z" />
<glyph unicode="x" horiz-adv-x="917" d="M86 0l272 426l-243 377h215l129 -230l129 230h215l-244 -377l272 -426h-200l-172 287l-172 -287h-201z" />
<glyph unicode="y" horiz-adv-x="1003" d="M115 803h200l172 -484l158 484h201l-330 -989q-31 -72 -96.5 -115t-132.5 -43q-58 0 -144 14l29 158q36 -17 68 -17q76 0 123 100q10 25 28 89z" />
<glyph unicode="z" horiz-adv-x="1003" d="M201 0v158l372 487h-372v158h573v-172l-358 -473h372v-158h-587z" />
<glyph unicode="&#xa8;" horiz-adv-x="831" d="M102 1061q0 52 36.5 88.5t88.5 36.5t88.5 -36.5t36.5 -88.5t-36.5 -88.5t-88.5 -36.5t-88.5 36.5t-36.5 88.5zM479 1061q0 52 36.5 88.5t88.5 36.5t88.5 -36.5t36.5 -88.5t-36.5 -88.5t-88.5 -36.5t-88.5 36.5t-36.5 88.5z" />
<glyph unicode="&#xad;" horiz-adv-x="688" d="M143 301v186h402v-186h-402z" />
<glyph unicode="&#xb7;" horiz-adv-x="458" d="M104 401q0 52 36.5 88.5t88.5 36.5t88.5 -36.5t36.5 -88.5t-36.5 -88.5t-88.5 -36.5t-88.5 36.5t-36.5 88.5z" />
<glyph unicode="&#x400;" horiz-adv-x="1103" d="M186 0v1147h717v-186h-516v-273h416v-172h-416v-344h531v-172h-732z" />
<glyph unicode="&#x401;" horiz-adv-x="1103" d="M186 0v1147h717v-186h-516v-273h416v-172h-416v-344h531v-172h-732zM238 1405q0 52 36 88.5t88 36.5t88.5 -36.5t36.5 -88.5t-36.5 -88.5t-88.5 -36.5t-88 36.5t-36 88.5zM614 1405q0 52 36.5 88.5t88.5 36.5t88.5 -36.5t36.5 -88.5t-36.5 -88.5t-88.5 -36.5t-88.5 36.5 t-36.5 88.5z" />
<glyph unicode="&#x405;" d="M180 172l142 117q4 -5 12.5 -14t38 -31.5t63 -40t86.5 -31.5t109 -14q65 0 113.5 18t71.5 45t33.5 51t10.5 43q0 2 0.5 15.5t0 20t-3 21t-10 23.5t-19 22.5t-31.5 24t-46 22t-64 21t-85 17.5q-94 16 -163.5 45.5t-105.5 60.5t-57.5 72t-26.5 71t-5 66q0 153 117 256 t298 103q56 0 117 -16.5t107 -39.5t84.5 -46t58.5 -40l21 -16l-129 -144q-4 5 -10.5 12.5t-31 27.5t-52 35t-72.5 27.5t-93 12.5q-61 0 -105.5 -18.5t-67 -47t-32.5 -55t-10 -51.5q0 -28 15 -49.5t40.5 -37t61.5 -27.5t76.5 -21t86.5 -19q14 -3 21 -4q154 -33 242 -118 t88 -211q0 -44 -18 -92.5t-56 -96t-89.5 -85.5t-124.5 -61.5t-156 -23.5q-72 0 -145 20.5t-126 50t-95 59.5t-63 51z" />
<glyph unicode="&#x406;" horiz-adv-x="573" d="M186 0v1147h201v-1147h-201z" />
<glyph unicode="&#x408;" horiz-adv-x="802" d="M72 0l14 201q86 -29 186 -29q49 0 89 37t40 105v833h201v-889q0 -110 -86.5 -198.5t-228.5 -88.5q-32 0 -85.5 7.5t-91.5 14.5z" />
<glyph unicode="&#x410;" horiz-adv-x="1261" d="M143 0l373 1147h229l373 -1147h-215l-72 229h-401l-72 -229h-215zM487 401h287l-143 488z" />
<glyph unicode="&#x411;" horiz-adv-x="1161" d="M186 0v1147h732v-172h-531v-287h244q83 0 149 -22.5t107 -57.5t68 -81.5t38 -91.5t11 -91q0 -45 -14 -91t-45.5 -92t-76.5 -81.5t-114 -57.5t-152 -22h-416zM387 172h201q100 0 157.5 44t57.5 128t-57.5 128t-157.5 44h-201v-344z" />
<glyph unicode="&#x412;" horiz-adv-x="1146" d="M186 0v1147h445q152 0 244 -96.5t92 -219.5q0 -66 -45.5 -132t-118.5 -97q91 -34 146 -100t55 -158q0 -142 -106.5 -243t-264.5 -101h-447zM387 172h244q81 0 126.5 52t45.5 120t-45.5 120t-126.5 52h-244v-344zM387 680h229q64 0 104 41t40 106q0 71 -42.5 109.5 t-101.5 38.5h-229v-295z" />
<glyph unicode="&#x413;" horiz-adv-x="1017" d="M186 0v1147h717v-172h-516v-975h-201z" />
<glyph unicode="&#x414;" horiz-adv-x="1261" d="M100 172h129q46 115 87.5 360.5t41.5 442.5v172h674v-86v-889h129v-373h-172v201h-717v-201h-172v373zM424 172h407v803h-272q0 -205 -38.5 -434.5t-96.5 -368.5z" />
<glyph unicode="&#x415;" horiz-adv-x="1103" d="M186 0v1147h717v-186h-516v-273h416v-172h-416v-344h531v-172h-732z" />
<glyph unicode="&#x416;" horiz-adv-x="1835" d="M100 0q45 35 83 93t88.5 156.5t72.5 137.5q8 14 25.5 44.5t25.5 44t24 38t27 36.5t28.5 28t34.5 24t39.5 15t47.5 8q-34 4 -91.5 69t-103.5 137q-23 35 -32.5 48.5t-29.5 36t-36.5 31t-42.5 15.5t-59 7l57 192q112 -6 186 -71q40 -35 79 -90t67.5 -103.5t60 -93t70 -70.5 t82.5 -24q6 0 14 4v434h201v-434q8 -4 14 -4q44 -2 82.5 24t70 70.5t60 93t67.5 103.5t79 90q74 65 186 71l57 -192q-33 0 -59 -7t-42.5 -15.5t-36.5 -31t-29.5 -36t-32.5 -48.5q-46 -72 -103.5 -137t-91.5 -69q25 -1 47.5 -8t39.5 -15t34.5 -24t28.5 -28t27 -36.5t24 -38 t25.5 -44t25.5 -44.5q22 -39 72.5 -137.5t88.5 -156.5t83 -93h-258q-19 32 -55.5 97.5t-85 154t-74.5 135.5q-81 143 -158 143l-86 -6v-524h-201v524q-57 6 -86 6q-77 0 -158 -143q-26 -47 -74.5 -135.5t-85 -154t-55.5 -97.5h-258z" />
<glyph unicode="&#x417;" horiz-adv-x="1089" d="M100 129l129 158q4 -5 12 -14t37 -31t62.5 -39t89 -31t115.5 -14q88 0 151.5 49t63.5 123q0 84 -54.5 135t-132.5 51h-129v172h129q76 0 117 49.5t41 93.5q0 20 -7.5 43.5t-25.5 51t-58 45.5t-95 18q-56 0 -106.5 -11.5t-82 -27.5t-55 -32t-33.5 -28l-10 -11l-108 168 q7 5 19.5 14t53.5 31t84.5 39t108.5 31t129 14q167 0 270 -91.5t103 -224.5q0 -44 -11 -82t-29 -63.5t-39 -46t-42.5 -32.5t-39.5 -20t-29 -11l-11 -3q10 -2 26.5 -7.5t58.5 -28t74 -51.5t58.5 -82.5t26.5 -117.5q0 -55 -30 -114.5t-83 -111t-137 -85t-181 -33.5 q-68 0 -137.5 16.5t-120 39.5t-91 46t-61.5 39z" />
<glyph unicode="&#x418;" d="M186 0v1147h201v-789l416 789h215v-1147h-201v788l-416 -788h-215z" />
<glyph unicode="&#x419;" d="M186 0v1147h201v-789l416 789h215v-1147h-201v788l-416 -788h-215zM287 1520h143q0 -68 44.5 -113t127.5 -45t127.5 45t44.5 113h129q0 -45 -19.5 -93.5t-55 -92.5t-95 -72.5t-131.5 -28.5t-133.5 28.5t-100 72t-60 93t-21.5 93.5z" />
<glyph unicode="&#x41a;" d="M172 0v1147h201v-428q5 -4 14 -4q43 -2 83 20.5t72.5 61t65.5 86t69 96.5t75.5 91t93.5 71t115 35l43 -201q-27 0 -50 -6t-37 -12t-33 -24.5t-25.5 -26.5t-27.5 -37t-28 -38q-3 -4 -24.5 -32.5t-30 -39.5t-29 -36t-33 -37t-29 -27t-30 -21.5t-25.5 -6.5q26 -3 49.5 -10.5 t40.5 -15.5t36 -25.5t29.5 -28.5t27.5 -37t24.5 -38t25.5 -44.5t25 -44.5q17 -29 59.5 -107t65 -116t60 -87.5t73.5 -76.5h-250q-20 38 -105 183.5t-118 203.5q-40 73 -82.5 108t-103.5 35l-86 -6v-524h-201z" />
<glyph unicode="&#x41b;" horiz-adv-x="1247" d="M111 164q8 2 21 6.5t47.5 22t62.5 39t54 59.5t34 82q14 86 14 774h717v-1147h-201v975h-315q-1 -431 -15 -574q-8 -82 -34 -150t-60.5 -111t-74.5 -76t-78.5 -50t-70 -27.5t-50.5 -12.5l-19 -3z" />
<glyph unicode="&#x41c;" horiz-adv-x="1433" d="M129 0l129 1147h201l258 -559l258 559h201l129 -1147h-215l-72 846l-301 -674l-301 674l-72 -846h-215z" />
<glyph unicode="&#x41d;" d="M186 0v1147h201v-459h430v459h201v-1147h-201v516h-430v-516h-201z" />
<glyph unicode="&#x41e;" d="M135 573q0 101 18 190.5t56 165.5t92.5 130.5t131.5 85.5t169 31t169 -31t131.5 -85.5t92.5 -130.5t56 -165.5t18 -190.5q0 -126 -29 -234t-85.5 -191t-147 -130t-205.5 -47t-205.5 47t-147 130t-85.5 191t-29 234zM330 573q0 -191 75.5 -303t196.5 -112t196.5 112 t75.5 303t-76 303.5t-196 112.5t-196 -112.5t-76 -303.5z" />
<glyph unicode="&#x41f;" d="M186 0v1147h832v-1147h-201v975h-430v-975h-201z" />
<glyph unicode="&#x420;" horiz-adv-x="1146" d="M186 0v1147h387q82 0 150 -25t111 -64.5t72.5 -90.5t42 -99.5t12.5 -93.5q0 -55 -29 -119t-78.5 -121t-124 -95t-156.5 -38h-186v-401h-201zM387 573h129q96 0 162.5 50.5t66.5 150.5t-66.5 150.5t-162.5 50.5h-129v-402z" />
<glyph unicode="&#x421;" horiz-adv-x="1146" d="M135 573q0 127 29 235t85.5 191t147 130t205.5 47q294 0 416 -316l-193 -72q-32 105 -87 153t-136 48q-120 0 -196 -112.5t-76 -303.5t75.5 -303t196.5 -112q82 0 136.5 47.5t86.5 152.5l193 -71q-122 -316 -416 -316q-115 0 -205.5 47t-147 129.5t-85.5 190.5t-29 235z " />
<glyph unicode="&#x422;" horiz-adv-x="1089" d="M129 975v172h832v-172h-316v-975h-201v975h-315z" />
<glyph unicode="&#x423;" horiz-adv-x="1146" d="M115 1147h215l272 -602l229 602h216l-373 -961q-31 -79 -113.5 -134.5t-159.5 -55.5t-100 10l-43 180q58 -14 115 -14q50 0 93.5 40t43.5 75q0 19 -99 234t-197 421z" />
<glyph unicode="&#x424;" horiz-adv-x="1433" d="M129 588q0 82 32.5 158t92 137t154 98t208.5 37v129h101h100v-129q114 0 208.5 -37t154.5 -98t92.5 -137t32.5 -158q0 -83 -30.5 -158.5t-89 -137t-154 -98t-214.5 -36.5v-158h-201v158q-119 0 -214.5 36.5t-153.5 98t-88.5 137t-30.5 158.5zM315 588q0 -118 86 -195.5 t215 -77.5v545q-131 0 -216 -77t-85 -195zM817 315q129 0 215 77.5t86 195.5t-85 195t-216 77v-545z" />
<glyph unicode="&#x425;" horiz-adv-x="1114" d="M86 0l356 602l-327 545h256l186 -359l186 359h256l-327 -545l356 -602h-242l-229 416l-229 -416h-242z" />
<glyph unicode="&#x426;" d="M129 0v1147h201v-975h430v975h201v-975h129v-401h-172v229h-789z" />
<glyph unicode="&#x427;" horiz-adv-x="1146" d="M158 645v502h200v-428q0 -117 101 -117q85 0 165.5 19.5t135.5 52.5v473h201v-1147h-201v487q-48 -38 -133.5 -54.5t-167.5 -16.5q-148 0 -224.5 60t-76.5 169z" />
<glyph unicode="&#x428;" horiz-adv-x="1605" d="M172 0v1147h201v-975l329 2v973h201v-975h330v975h201v-1147h-1262z" />
<glyph unicode="&#x429;" horiz-adv-x="1677" d="M172 0v1147h201v-975h329v975h201v-975h330v975h201v-975h129v-401h-172v229h-1219z" />
<glyph unicode="&#x42a;" horiz-adv-x="1261" d="M100 975v172h445v-445h243q102 0 176 -30.5t112 -81.5t54.5 -104.5t16.5 -112.5q0 -37 -9 -77t-27.5 -83t-50 -80.5t-72.5 -67.5t-100 -47.5t-128 -17.5h-416v975h-244zM545 172h200q98 0 149.5 43.5t51.5 128.5q0 87 -52.5 136.5t-148.5 49.5h-200v-358z" />
<glyph unicode="&#x42b;" horiz-adv-x="1462" d="M186 0v1147h201v-445h244q83 0 147.5 -21t103 -53.5t63.5 -77t34.5 -88t9.5 -89.5q0 -37 -9 -77t-27.5 -83t-50 -80.5t-72.5 -67.5t-100 -47.5t-128 -17.5h-416zM387 172h201q200 0 200 172q0 87 -52 136.5t-148 49.5h-201v-358zM1075 0v1147h201v-1147h-201z" />
<glyph unicode="&#x42c;" horiz-adv-x="1103" d="M186 0v1147h201v-445h244q83 0 147.5 -21t103 -53.5t63.5 -77t34.5 -88t9.5 -89.5q0 -37 -9 -77t-27.5 -83t-50 -80.5t-72.5 -67.5t-100 -47.5t-128 -17.5h-416zM387 172h201q200 0 200 172q0 87 -52 136.5t-148 49.5h-201v-358z" />
<glyph unicode="&#x42d;" horiz-adv-x="1146" d="M115 989q39 39 56 55t50 43.5t57.5 39t61.5 25.5t80 19t96 5q235 0 361.5 -153.5t126.5 -434.5q0 -284 -127.5 -450.5t-360.5 -166.5q-133 0 -214 42t-173 145l143 143q51 -92 107 -125t137 -33q115 0 195.5 95t87.5 278h-355v172h353q-34 316 -281 316q-80 0 -130 -29 t-114 -115z" />
<glyph unicode="&#x42e;" horiz-adv-x="1671" d="M186 0v1147h201v-473h197q14 146 68.5 257t156 178t238.5 67q115 0 205 -47t146.5 -130t85.5 -191t29 -235t-29 -235t-85.5 -190.5t-146.5 -129.5t-205 -47q-107 0 -192.5 40.5t-142 113t-89.5 168t-41 209.5h-195v-502h-201zM774 573q0 -190 76 -302.5t197 -112.5 t196.5 112t75.5 303t-76 303.5t-196 112.5q-121 0 -197 -113t-76 -303z" />
<glyph unicode="&#x42f;" d="M86 0q27 14 101.5 147.5t113.5 225.5q22 53 75.5 103.5t96.5 60.5q-110 22 -177 100t-67 194q0 37 11 77t38.5 83.5t68 77.5t107 56t148.5 22h416v-1147h-201v459h-129q-43 0 -74.5 -11t-54.5 -36t-36.5 -47t-33.5 -61q-7 -13 -10 -20q-120 -232 -149 -284h-244zM430 803 q0 -87 60.5 -129.5t154.5 -42.5h172v344h-158q-96 0 -162.5 -43t-66.5 -129z" />
<glyph unicode="&#x430;" horiz-adv-x="974" d="M143 229q0 76 50.5 133.5t122 85.5t143 45t121.5 20l51 3v57q0 35 -55.5 75t-116.5 40q-59 0 -117.5 -30.5t-97.5 -69.5l-86 143q57 34 82 48t89 33t130 19q73 0 152 -34t135.5 -95t56.5 -129v-387q0 -25 6 -41t19.5 -22t21.5 -7t24 -1l-71 -144q-84 0 -123 24.5 t-49 104.5q-25 -49 -88 -89t-142 -40q-44 0 -89 16.5t-83 47.5t-62 81.5t-24 112.5zM330 244q0 -65 40 -97t74 -32q39 0 85 30t74 60t28 39v143q-18 -7 -58.5 -13t-79.5 -13t-77.5 -19t-62 -37t-23.5 -61z" />
<glyph unicode="&#x433;" horiz-adv-x="860" d="M186 0v803h559v-158h-387v-645h-172z" />
<glyph unicode="&#x435;" horiz-adv-x="1032" d="M139 401q3 191 82 287q53 65 133.5 104t161.5 39q151 0 262 -120t111 -281q0 -33 -12.5 -59.5t-30.5 -26.5h-516q0 -61 23 -105.5t58.5 -67t69 -32.5t64.5 -10q51 0 88.5 25.5t83.5 83.5l139 -80q-145 -187 -311 -187q-80 0 -154.5 31.5t-130.5 86.5t-89 136.5t-32 175.5 zM330 487h358q14 0 14 29q0 63 -61.5 119t-124.5 53q-78 -3 -132 -52.5t-54 -148.5z" />
<glyph unicode="&#x438;" horiz-adv-x="1032" d="M172 0v803h172v-545l330 545h186v-803h-172v545l-330 -545h-186z" />
<glyph unicode="&#x43a;" horiz-adv-x="1032" d="M186 0v803h172v-287q6 -2 21 -2q35 0 75.5 30t79 73t79 87t90.5 76.5t100 36.5l43 -143q-37 -3 -70.5 -23.5t-59 -49.5t-49 -58t-51.5 -53t-57 -31q55 -11 98.5 -49t74.5 -90.5t58.5 -107.5t64 -114.5t77.5 -97.5h-215q-23 35 -48.5 84.5t-43.5 87t-43 78t-49 67 t-58 43.5t-74 17q-15 0 -43 -4v-373h-172z" />
<glyph unicode="&#x43b;" horiz-adv-x="1032" d="M96 135q40 7 81 35t65 74q23 42 34 219.5t11 339.5h559v-803h-172v645h-230q-2 -36 -3 -98.5t-1.5 -104.5t-7 -100t-17 -99t-33 -88t-55 -79.5t-83 -60.5t-115.5 -44z" />
<glyph unicode="&#x43c;" d="M158 0l71 803h172l201 -402l201 402h172l72 -803h-173l-43 559l-229 -459l-229 459l-43 -559h-172z" />
<glyph unicode="&#x43d;" horiz-adv-x="1046" d="M186 0v803h172v-301h330v301h172v-803h-172v344h-330v-344h-172z" />
<glyph unicode="&#x43e;" horiz-adv-x="1032" d="M143 401q0 192 105 311t268 119t268 -119t105 -311t-105 -311t-268 -119t-268 119t-105 311zM315 401q0 -128 57 -207t144 -79t144 79t57 207t-57 207.5t-144 79.5t-144 -79.5t-57 -207.5z" />
<glyph unicode="&#x43f;" horiz-adv-x="1017" d="M186 0v803h645v-803h-172v645h-301v-645h-172z" />
<glyph unicode="&#x440;" horiz-adv-x="1017" d="M172 -344v1147h143q8 -45 29 -86q2 5 7 12.5t22.5 27t39 34.5t57 27.5t75.5 12.5q47 0 92.5 -11t95 -41.5t86 -77t60.5 -124t24 -176.5q0 -101 -29.5 -181.5t-71.5 -125.5t-94.5 -74.5t-92 -39t-70.5 -9.5q-52 0 -101.5 23t-74.5 46t-25 32v-416h-172zM344 229 q31 -53 87.5 -83.5t113.5 -30.5q77 0 131.5 80t54.5 206q0 125 -54 199t-132 74q-61 0 -114.5 -39t-86.5 -105v-301z" />
<glyph unicode="&#x441;" horiz-adv-x="974" d="M129 401q0 190 111.5 310t275.5 120q121 0 212 -64t132 -179l-162 -62q-23 78 -70.5 120t-111.5 42q-87 0 -144 -79.5t-57 -207.5t57 -207t144 -79q65 0 112 41.5t70 119.5l162 -61q-41 -115 -132.5 -179.5t-211.5 -64.5q-164 0 -275.5 120t-111.5 310z" />
<glyph unicode="&#x442;" horiz-adv-x="858" d="M102 645v158h654v-158h-240v-645h-172v645h-242z" />
<glyph unicode="&#x443;" horiz-adv-x="917" d="M86 803h201l186 -531l158 531h200l-329 -989q-31 -72 -96.5 -115t-133.5 -43q-14 0 -59 8l-55 164q29 -14 71 -14q36 0 64 16.5t47.5 47t31 58.5t21.5 64z" />
<glyph unicode="&#x445;" horiz-adv-x="917" d="M86 0l272 426l-243 377h215l129 -230l129 230h215l-244 -377l272 -426h-200l-172 287l-172 -287h-201z" />
<glyph unicode="&#x446;" horiz-adv-x="1032" d="M172 0v803h172v-645h301v645h172v-645h158v-330h-172v172h-631z" />
<glyph unicode="&#x451;" horiz-adv-x="1032" d="M139 401q3 191 82 287q53 65 133.5 104t161.5 39q151 0 262 -120t111 -281q0 -33 -12.5 -59.5t-30.5 -26.5h-516q0 -61 23 -105.5t58.5 -67t69 -32.5t64.5 -10q51 0 88.5 25.5t83.5 83.5l139 -80q-145 -187 -311 -187q-80 0 -154.5 31.5t-130.5 86.5t-89 136.5t-32 175.5 zM197 1061q0 52 36.5 88.5t88.5 36.5t88 -36.5t36 -88.5t-36 -88.5t-88 -36.5t-88.5 36.5t-36.5 88.5zM330 487h358q14 0 14 29q0 63 -61.5 119t-124.5 53q-78 -3 -132 -52.5t-54 -148.5zM573 1061q0 52 36.5 88.5t88.5 36.5t88.5 -36.5t36.5 -88.5t-36.5 -88.5t-88.5 -36.5 t-88.5 36.5t-36.5 88.5z" />
<glyph unicode="&#x456;" horiz-adv-x="516" d="M133 1067q0 52 36.5 88.5t88.5 36.5t88.5 -36.5t36.5 -88.5t-36.5 -88.5t-88.5 -36.5t-88.5 36.5t-36.5 88.5zM172 0v803h172v-803h-172z" />
<glyph unicode="&#x457;" horiz-adv-x="749" d="M61 1061q0 52 36.5 88.5t88.5 36.5t88.5 -36.5t36.5 -88.5t-36.5 -88.5t-88.5 -36.5t-88.5 36.5t-36.5 88.5zM287 0v803h172v-803h-172zM438 1061q0 52 36.5 88.5t88.5 36.5t88.5 -36.5t36.5 -88.5t-36.5 -88.5t-88.5 -36.5t-88.5 36.5t-36.5 88.5z" />
<glyph unicode="&#x462;" horiz-adv-x="1118" d="M0 860v172l186 -2v117h203l-2 -115h244v-172h-244v-172h244q83 0 149 -22.5t107 -57.5t68 -81.5t38 -91.5t11 -91q0 -45 -14 -91t-45.5 -92t-76.5 -81.5t-114 -57.5t-152 -22h-416v858zM387 172h201q100 0 157.5 44t57.5 128t-57.5 128t-157.5 44h-201v-344z" />
<glyph unicode="&#x4ae;" d="M143 1147h230l229 -473l229 473h230l-359 -688v-459h-200v459z" />
<glyph unicode="&#x4cf;" horiz-adv-x="573" d="M186 0v1147h201v-1147h-201z" />
<glyph unicode="&#x4d9;" horiz-adv-x="1032" d="M139 373q0 33 12.5 59.5t30.5 26.5h516q0 61 -23 105.5t-58.5 67t-69 32.5t-64.5 10q-51 0 -88.5 -25.5t-83.5 -83.5l-139 80q73 94 153 140t158 46q80 0 154.5 -31.5t130.5 -86.5t89 -136.5t32 -175.5q-3 -190 -82 -286q-53 -65 -133.5 -104.5t-161.5 -39.5 q-150 0 -261.5 120t-111.5 282zM326 287q0 -63 61.5 -119t124.5 -53q78 3 132 52t54 148h-358q-14 0 -14 -28z" />
<glyph unicode="&#x2000;" horiz-adv-x="765" />
<glyph unicode="&#x2001;" horiz-adv-x="1530" />
<glyph unicode="&#x2002;" horiz-adv-x="765" />
<glyph unicode="&#x2003;" horiz-adv-x="1530" />
<glyph unicode="&#x2004;" horiz-adv-x="510" />
<glyph unicode="&#x2005;" horiz-adv-x="382" />
<glyph unicode="&#x2006;" horiz-adv-x="255" />
<glyph unicode="&#x2007;" horiz-adv-x="255" />
<glyph unicode="&#x2008;" horiz-adv-x="191" />
<glyph unicode="&#x2009;" horiz-adv-x="306" />
<glyph unicode="&#x200a;" horiz-adv-x="85" />
<glyph unicode="&#x2010;" horiz-adv-x="688" d="M143 301v186h402v-186h-402z" />
<glyph unicode="&#x2011;" horiz-adv-x="688" d="M143 301v186h402v-186h-402z" />
<glyph unicode="&#x2012;" horiz-adv-x="688" d="M143 301v186h402v-186h-402z" />
<glyph unicode="&#x2013;" horiz-adv-x="1310" d="M143 301v186h1024v-186h-1024z" />
<glyph unicode="&#x2014;" horiz-adv-x="2334" d="M143 301v186h2048v-186h-2048z" />
<glyph unicode="&#x202f;" horiz-adv-x="306" />
<glyph unicode="&#x205f;" horiz-adv-x="382" />
<glyph unicode="&#x220f;" d="M186 0v1147h832v-1147h-201v975h-430v-975h-201z" />
<glyph unicode="&#xe000;" horiz-adv-x="798" d="M0 0v799h799v-799h-799z" />
</font>
</defs>
</svg>
