<?xml version="1.0" encoding="utf-8"?>
<!-- Generator: Adobe Illustrator 17.0.1, SVG Export Plug-In . SVG Version: 6.00 Build 0)  -->
<!DOCTYPE svg PUBLIC "-//W3C//DTD SVG 1.1//EN" "http://www.w3.org/Graphics/SVG/1.1/DTD/svg11.dtd">
<svg version="1.1"
	 id="svg3612" xmlns:dc="http://purl.org/dc/elements/1.1/" xmlns:cc="http://creativecommons.org/ns#" xmlns:rdf="http://www.w3.org/1999/02/22-rdf-syntax-ns#" xmlns:svg="http://www.w3.org/2000/svg"
	 xmlns="http://www.w3.org/2000/svg" xmlns:xlink="http://www.w3.org/1999/xlink" x="0px" y="0px" width="163.062px"
	 height="163.094px" viewBox="0 0 163.062 163.094" enable-background="new 0 0 163.062 163.094" xml:space="preserve">
<g>
	
		<linearGradient id="path3068-3-5_1_" gradientUnits="userSpaceOnUse" x1="566.3948" y1="-419.8521" x2="563.4623" y2="-266.748" gradientTransform="matrix(1 0 0 -1 -483.4471 -264.3679)">
		<stop  offset="0" style="stop-color:#AA0000"/>
		<stop  offset="1" style="stop-color:#FF0000"/>
	</linearGradient>
	<path id="path3068-3-5" fill="#FFFFFF" stroke="url(#path3068-3-5_1_)" stroke-width="16" d="M155.07,81.55
		c0,40.615-32.925,73.539-73.539,73.539S7.992,122.164,7.992,81.55C7.972,40.935,40.881,7.994,81.495,7.974
		s73.555,32.888,73.575,73.503C155.07,81.501,155.07,81.526,155.07,81.55L155.07,81.55z"/>
	<g enable-background="new    ">
		<path d="M28.98,72.956c3.832,0,5.173,3.066,5.173,4.982s-2.108,4.982-5.173,4.982h-2.491v5.365h-2.683v-15.33H28.98z
			 M26.489,80.621h1.725c1.533,0,3.066-0.767,3.066-2.683s-1.533-2.683-3.066-2.683h-1.725V80.621z"/>
		<path d="M39.132,72.956h9.581v2.491h-6.898v3.642h5.557v2.299h-5.557v4.599h7.09v2.3h-9.772V72.956z"/>
		<path d="M59.248,72.956c3.833,0,4.791,2.684,4.791,4.216c0,2.108-1.341,3.449-2.875,4.024c2.491,0.575,3.258,6.323,4.982,7.09
			h-3.258c-0.598-0.797-1.092-2.423-1.806-3.8c-0.659-1.271-1.068-2.332-2.793-2.332h-1.533v6.132h-2.683v-15.33H59.248z
			 M56.756,79.854h1.725c1.533,0,2.875-0.656,2.875-2.299s-1.341-2.3-2.875-2.3h-1.725V79.854z"/>
		<path d="M70.548,72.956h3.066l4.216,7.091l4.215-7.091h3.066v15.33H82.62l-0.191-11.114L77.83,85.22l-4.599-8.048v11.114h-2.683
			V72.956z"/>
		<path d="M94.715,83.66h0.164l2.299-10.704h2.683l2.491,10.868l2.108-10.868h2.874l-3.258,15.33h-3.065L98.52,78.185l-2.491,10.102
			h-3.065l-3.258-15.33h2.874L94.715,83.66z"/>
		<path d="M119.592,72.956l4.982,15.33H121.7l-0.959-3.066h-5.365l-0.958,3.066h-2.874l4.982-15.33H119.592z M119.976,82.921
			l-1.917-6.516l-1.916,6.516H119.976z"/>
		<path d="M133.192,82.154l-4.791-9.198h3.066l3.065,6.324l3.066-6.324h3.065l-4.79,9.198v6.132h-2.683V82.154z"/>
	</g>
</g>
</svg>
