<?xml version="1.0" encoding="utf-8"?>
<!-- Generator: Adobe Illustrator 17.0.1, SVG Export Plug-In . SVG Version: 6.00 Build 0)  -->
<!DOCTYPE svg PUBLIC "-//W3C//DTD SVG 1.1//EN" "http://www.w3.org/Graphics/SVG/1.1/DTD/svg11.dtd">
<svg version="1.1" id="Слой_1" xmlns="http://www.w3.org/2000/svg" xmlns:xlink="http://www.w3.org/1999/xlink" x="0px" y="0px"
	 width="1076px" height="262px" viewBox="0 0 1076 262" enable-background="new 0 0 1076 262" xml:space="preserve">
<path fill="#FFFFFF" d="M269.621,43.388V146.37c0,1.922,1.922,51.491,55.335,51.491c53.331,0,55.253-49.569,55.253-51.491V43.388
	h-26.665v104.904c0,20.982-17.138,28.587-28.587,28.587c-11.454,0-28.587-7.606-28.587-28.587V43.388H269.621z M429.737,195.94
	h95.371v-22.904h-68.624V43.388h-26.747V195.94z M593.717,43.388h-28.587l32.349,152.551h30.514l24.82-100.502l24.749,100.502
	h30.509l32.431-152.551h-28.587l-20.982,108.184L666.108,43.388h-26.665l-22.904,106.503h-1.599L593.717,43.388z M828.309,142.527
	l19.137-64.785l19.06,64.785H828.309z M832.153,43.388L782.584,195.94h28.587l9.527-30.509h53.413l9.527,30.509h28.593
	L862.662,43.388H832.153z M997.793,195.94h26.747v-61.024l47.647-91.528h-30.514l-30.509,62.94l-30.509-62.94h-30.509l47.647,91.528
	V195.94z"/>
<path fill="#FFFFFF" d="M100.875-0.056c-26.747,0-53.51,10.173-73.913,30.591c-40.821,40.821-28.869,97.836,0,147.826
	c30.309,52.531,62.182,82.882,73.913,82.882c11.731,0,47.745-41.4,73.913-82.882c30.791-48.826,40.821-107.005,0-147.826
	C154.37,10.117,127.622-0.056,100.875-0.056L100.875-0.056z M74.327,41.128h25.487l-5.443,36.454h29.105l5.468-36.454h25.543
	l-5.504,36.454h20.039v21.879H145.36l-3.623,29.11h19.998v21.884h-23.662l-5.468,36.413h-25.481l5.443-36.413H83.399l-5.448,36.413
	H52.449l5.463-36.413H37.873v-21.884h23.703l3.623-29.11H45.161V77.582h23.703L74.327,41.128z M90.686,99.461l-3.603,29.11h29.105
	l3.664-29.11H90.686z"/>
</svg>
