<?xml version="1.0" encoding="UTF-8" standalone="no"?>
<!-- Created with Inkscape (http://www.inkscape.org/) -->

<svg
   xmlns:dc="http://purl.org/dc/elements/1.1/"
   xmlns:cc="http://creativecommons.org/ns#"
   xmlns:rdf="http://www.w3.org/1999/02/22-rdf-syntax-ns#"
   xmlns:svg="http://www.w3.org/2000/svg"
   xmlns="http://www.w3.org/2000/svg"
   version="1.1"
   width="300.53296"
   height="63.732368"
   id="svg3285">
  <defs
     id="defs3287" />
  <metadata
     id="metadata3290">
    <rdf:RDF>
      <cc:Work
         rdf:about="">
        <dc:format>image/svg+xml</dc:format>
        <dc:type
           rdf:resource="http://purl.org/dc/dcmitype/StillImage" />
        <dc:title></dc:title>
      </cc:Work>
    </rdf:RDF>
  </metadata>
  <g
     transform="translate(-224.73352,-500.496)"
     id="layer1">
    <text
       x="284.3046"
       y="548.29608"
       id="text3934-1-6-4-1"
       xml:space="preserve"
       style="font-size:20.43964005px;font-style:normal;font-weight:normal;line-height:125%;letter-spacing:0px;word-spacing:0px;fill:#ffffff;fill-opacity:1;stroke:none;font-family:Sans"><tspan
         x="284.3046"
         y="548.29608"
         id="tspan3936-5-5-7-7"
         style="font-size:66.42884064px;font-style:normal;font-variant:normal;font-weight:500;font-stretch:normal;text-align:start;line-height:125%;writing-mode:lr-tb;text-anchor:start;fill:#ffffff;fill-opacity:1;font-family:Russian Road Sign;-inkscape-font-specification:Russian Road Sign Medium">EKBWAY</tspan></text>
    <path
       d="m 249.18174,500.496 c -6.52468,0 -13.05013,2.48138 -18.02829,7.45954 -9.95633,9.95632 -7.04018,23.86264 0,36.05658 7.39607,12.81037 15.167,20.21625 18.02829,20.21625 2.86128,0 11.64851,-10.09881 18.02829,-20.21625 7.51025,-11.9102 9.95631,-26.10026 0,-36.05658 -4.97816,-4.97815 -11.50361,-7.45954 -18.02829,-7.45954 z m -6.47432,10.04415 6.21842,0 -1.33069,8.89259 7.10128,0 1.33069,-8.89259 6.23121,0 -1.34349,8.89259 4.88773,0 0,5.33556 -5.77059,0 -0.88286,7.10127 4.87493,0 0,5.33556 -5.77059,0 -1.33069,8.87979 -6.21841,0 1.33069,-8.87979 -7.11408,0 -1.33069,8.87979 -6.21841,0 1.33069,-8.87979 -4.88773,0 0,-5.33556 5.78338,0 0.88287,-7.10127 -4.88773,0 0,-5.33556 5.78338,0 1.33069,-8.89259 z m 3.99207,14.22815 -0.88286,7.10127 7.10128,0 0.89565,-7.10127 -7.11407,0 z"
       id="path3841-1-9-1-5-1-9-4"
       style="fill:#ffffff;fill-opacity:1;stroke:none" />
  </g>
</svg>
