<?xml version="1.0" encoding="utf-8"?>
<!-- Generator: Adobe Illustrator 17.0.1, SVG Export Plug-In . SVG Version: 6.00 Build 0)  -->
<!DOCTYPE svg PUBLIC "-//W3C//DTD SVG 1.1//EN" "http://www.w3.org/Graphics/SVG/1.1/DTD/svg11.dtd">
<svg version="1.1" id="Слой_1" xmlns="http://www.w3.org/2000/svg" xmlns:xlink="http://www.w3.org/1999/xlink" x="0px" y="0px"
	 width="1076px" height="262px" viewBox="0 0 1076 262" enable-background="new 0 0 1076 262" xml:space="preserve">
<path fill="#FFFFFF" d="M252.542,59.721c-32.416,0-48.003,27.776-48.003,61.859c0,34.269,15.587,61.859,48.003,61.859
	c22.269,0,35.322-13.298,42.682-32.412l-19.732-7.364c-4.454,14.724-12.249,20.599-22.95,20.599
	c-16.208,0-27.958-16.204-27.958-42.682c0-26.537,11.75-42.745,27.958-42.745c10.701,0,18.496,5.939,22.95,20.662l19.732-7.36
	C287.865,72.96,274.812,59.721,252.542,59.721L252.542,59.721z M327.732,180.471h20.662V127.46h44.167v53.011h20.599V62.631h-20.599
	v47.136h-44.167V62.631h-20.662V180.471z M451.419,180.471h75.162v-17.693h-54.5V127.46h42.682v-17.693h-42.682V81.805h53.015
	V62.631h-73.677V180.471z M564.825,62.631v117.84h45.901c21.897,0,38.042-16.208,38.042-35.322c0-13.298-8.785-22.083-20.599-26.537
	c10.329-4.39,16.826-14.723,16.826-23.568c0-15.527-12.372-32.412-34.455-32.412H564.825z M585.487,80.32h23.568
	c7.36,0,14.724,4.826,14.724,15.155c0,8.848-5.879,15.159-14.724,15.159h-23.568V80.32z M585.487,127.46h25.052
	c11.754,0,17.629,9.276,17.629,17.689c0,8.413-5.875,17.63-17.629,17.63h-25.052V127.46z M703.422,62.631h-22.083l24.989,117.84
	h23.568l19.177-77.632l19.114,77.632h23.568l25.052-117.84h-22.083l-16.208,83.571l-19.173-83.571h-20.599l-17.693,82.272h-1.239
	L703.422,62.631z M884.637,139.21l14.787-50.042l14.72,50.042H884.637z M887.606,62.631l-38.291,117.84h22.083l7.364-23.568h41.261
	l7.36,23.568h22.083l-38.292-117.84H887.606z M1015.561,180.471h20.662v-47.136l36.807-70.704h-23.568l-23.568,48.621
	l-23.568-48.621h-23.568l36.803,70.704V180.471z"/>
<path fill="#FFFFFF" d="M79.427,29.071c-20.658,0-41.32,7.855-57.093,23.631c-31.533,31.534-22.301,75.577,0,114.194
	c23.429,40.58,48.031,64.021,57.093,64.021c9.062,0,36.902-31.981,57.113-64.021c23.786-37.721,31.534-82.66,0-114.194
	C120.767,36.925,100.105,29.071,79.427,29.071L79.427,29.071z M58.923,60.881h19.7l-4.22,28.161h22.503l4.205-28.161h19.732
	l-4.252,28.161h15.48v16.905h-18.263l-2.799,22.487h15.432v16.901h-18.279l-4.205,28.133H84.253l4.224-28.133H65.943l-4.22,28.133
	H42.034l4.208-28.133H30.759v-16.901h18.326l2.783-22.487h-15.48V89.042h18.326L58.923,60.881z M71.572,105.947l-2.799,22.487
	h22.503l2.827-22.487H71.572z"/>
</svg>
